PathFileType	4	(X/Y/Z)	/Users/itak/Documents/Research/Walk-IL/dataset/trc/00397_00012.trc
DataRate	CameraRate	NumFrames	NumMarkers	Units	OrigDataRate	OrigDataStartFrame	OrigNumFrames
100.000000	100.000000	4	53	mm	100.000000	451	722
Frame#	Time	RPSI			LPSI			L3			STRN			T10			C7			CLAV			RBAK			LBAK			LSHO			LUPA			LAEL			LAOL			LWTS			LWPS			LFRA			LIFD			LHPS			LHTS			RSHO			RUPA			RAEL			RAOL			RWTS			RWPS			RFRA			RIFD			RHTS			RHPS			RBHD			LFHD			RFHD			LBHD			LHIP			RHIP			RASI			LASI			LKNE			LTHI			LANK			LTIP			LTOE			LMT1			LMT5			LHEE			RKNE			RTHI			RANK			RTIP			RTOE			RMT1			RMT5			RHEE			
		X1	Y1	Z1	X2	Y2	Z2	X3	Y3	Z3	X4	Y4	Z4	X5	Y5	Z5	X6	Y6	Z6	X7	Y7	Z7	X8	Y8	Z8	X9	Y9	Z9	X10	Y10	Z10	X11	Y11	Z11	X12	Y12	Z12	X13	Y13	Z13	X14	Y14	Z14	X15	Y15	Z15	X16	Y16	Z16	X17	Y17	Z17	X18	Y18	Z18	X19	Y19	Z19	X20	Y20	Z20	X21	Y21	Z21	X22	Y22	Z22	X23	Y23	Z23	X24	Y24	Z24	X25	Y25	Z25	X26	Y26	Z26	X27	Y27	Z27	X28	Y28	Z28	X29	Y29	Z29	X30	Y30	Z30	X31	Y31	Z31	X32	Y32	Z32	X33	Y33	Z33	X34	Y34	Z34	X35	Y35	Z35	X36	Y36	Z36	X37	Y37	Z37	X38	Y38	Z38	X39	Y39	Z39	X40	Y40	Z40	X41	Y41	Z41	X42	Y42	Z42	X43	Y43	Z43	X44	Y44	Z44	X45	Y45	Z45	X46	Y46	Z46	X47	Y47	Z47	X48	Y48	Z48	X49	Y49	Z49	X50	Y50	Z50	X51	Y51	Z51	X52	Y52	Z52	X53	Y53	Z53	

452	4.51	-148.509765625	972.6158447265625	-658.01171875	-78.40436553955078	946.0816650390625	-548.4583129882812	-110.6895980834961	1047.010009765625	-606.99267578125	-317.0779418945312	1201.782836914062	-476.4206237792969	-104.6293487548828	1152.387939453125	-605.8773803710938	-138.6988830566406	1400.380004882812	-570.5913696289062	-269.7694396972656	1321.12451171875	-498.4495544433594	-135.5986175537109	1258.541748046875	-658.099609375	-71.81414794921875	1362.601684570312	-494.2357482910156	-117.1123352050781	1375.083129882812	-405.1037902832031	-43.59139633178711	1264.37158203125	-373.0793762207031	-10.49736785888672	1069.27734375	-369.4586181640625	-13.29640293121338	1055.081787109375	-454.1575622558594	-74.75532531738281	842.0789184570312	-349.4345397949219	6.836652278900146	838.963623046875	-348.1929016113281	0.8344244360923767	964.2816772460938	-361.5404357910156	-42.19065093994141	664.3602294921875	-357.9062805175781	2.88666820526123	752.4653930664062	-349.5263061523438	-56.11583709716797	744.8704833984375	-331.9952087402344	-265.2132568359375	1388.15771484375	-676.2571411132812	-285.2387390136719	1328.968017578125	-737.7122802734375	-345.4986572265625	1076.906860351562	-796.3361206054688	-286.7522277832031	1052.00048828125	-724.0302124023438	-504.0828552246094	904.4810180664062	-703.6559448242188	-501.7564086914062	890.8731079101562	-776.501708984375	-392.6006774902344	1021.071350097656	-797.8660888671875	-569.6531372070312	743.9508056640625	-707.8339233398438	-566.6644897460938	817.22607421875	-711.543212890625	-539.363525390625	810.7807006835938	-774.68212890625	-250.2549133300781	1592.913940429688	-601.5980834960938	-246.8307189941406	1574.401977539062	-402.2821655273438	-326.4440612792969	1588.035400390625	-492.7785339355469	-131.0567169189453	1575.035766601562	-494.8766174316406	-99.10690307617188	939.2943725585938	-409.1153869628906	-278.8729248046875	965.54443359375	-716.3897094726562	-368.1922607421875	971.0171508789062	-603.658203125	-219.2073059082031	950.453125	-389.0361633300781	-341.0415649414062	499.3926696777344	-335.5881958007812	-273.1817932128906	619.3604736328125	-347.4118041992188	-221.3990783691406	87.48548126220703	-490.2944030761719	-273.2598876953125	280.8023986816406	-403.61669921875	-420.0850524902344	55.95893859863281	-416.1145629882812	-378.648681640625	64.43492889404297	-485.6187744140625	-309.8372802734375	59.37033843994141	-405.3371276855469	-226.4062957763672	96.22150421142578	-557.686279296875	-309.2819519042969	474.5752868652344	-700.8020629882812	-354.8515930175781	738.3232421875	-687.6123657226562	-229.8085479736328	50.68979263305664	-720.2296142578125	-306.4605102539062	346.1871948242188	-692.1024780273438	-363.7716979980469	40.53250885009766	-586.9171142578125	-284.3347473144531	44.72052383422852	-591.3821411132812	-307.9234008789062	40.30397796630859	-690.964599609375	-141.4776153564453	38.86453628540039	-703.7846069335938	
453	4.52	-157.0251922607422	972.2495727539062	-654.972900390625	-86.32730865478516	945.5327758789062	-545.8875732421875	-119.0293121337891	1046.155029296875	-604.482177734375	-324.3861999511719	1200.6982421875	-472.1861572265625	-112.5232086181641	1151.69580078125	-603.556396484375	-147.0717468261719	1399.49365234375	-567.785400390625	-277.4642028808594	1320.09375	-494.4984436035156	-144.5552215576172	1257.813110351562	-655.4564819335938	-79.48177337646484	1361.678955078125	-492.1377868652344	-123.9563446044922	1374.04736328125	-402.5679016113281	-49.50909042358398	1263.653686523438	-371.9386901855469	-14.85601711273193	1068.885620117188	-369.6094665527344	-19.42063903808594	1054.834228515625	-454.2877197265625	-77.16823577880859	841.3291625976562	-348.4513854980469	4.278240203857422	838.6122436523438	-349.2588195800781	-2.766244411468506	963.96044921875	-362.1785278320312	-44.22026443481445	663.6342163085938	-357.7486267089844	0.7522314190864563	752.1162109375	-350.6524963378906	-57.71237564086914	744.1537475585938	-331.7142639160156	-274.4246215820312	1387.288940429688	-672.3403930664062	-294.987060546875	1328.026977539062	-733.6366577148438	-357.4046630859375	1076.213623046875	-791.5870361328125	-298.2526550292969	1051.121826171875	-719.5186767578125	-518.6766357421875	908.124755859375	-696.1615600585938	-517.06005859375	893.4075317382812	-768.818115234375	-405.3743896484375	1021.126037597656	-792.3086547851562	-588.156494140625	749.2167358398438	-697.6892700195312	-583.3814086914062	822.3319702148438	-702.5011596679688	-556.4617919921875	814.2094116210938	-765.6729736328125	-259.3019409179688	1592.184326171875	-597.0942993164062	-254.1089935302734	1572.8623046875	-397.9312438964844	-334.5784301757812	1586.634887695312	-487.5955505371094	-139.1498870849609	1574.27734375	-491.6090698242188	-106.1851272583008	938.5076904296875	-406.6306762695312	-287.3010559082031	965.2555541992188	-712.8635864257812	-376.3721618652344	969.8553466796875	-599.3007202148438	-226.1872253417969	949.6140747070312	-385.5238952636719	-348.4705505371094	498.7388610839844	-330.6038818359375	-279.5159301757812	618.9446411132812	-343.1343994140625	-251.2606506347656	78.55004119873047	-478.8587036132812	-291.5470886230469	275.8721923828125	-395.5531311035156	-449.1465454101562	58.41984558105469	-398.9950256347656	-409.2519836425781	63.27811050415039	-469.6830749511719	-338.6433410644531	56.88360977172852	-391.0304565429688	-257.4940185546875	85.82289886474609	-546.3317260742188	-311.8359680175781	474.200439453125	-700.0723876953125	-360.2936096191406	737.374267578125	-684.2125244140625	-229.8543090820312	50.83705902099609	-720.0619506835938	-307.93408203125	345.8239440917969	-691.8011474609375	-363.9282836914062	40.40923690795898	-586.8799438476562	-284.5377197265625	44.65139770507812	-591.33544921875	-307.9660949707031	40.29994964599609	-690.9323120117188	-141.4182891845703	39.13400650024414	-703.5113525390625	
454	4.53	-165.5841674804688	971.7705078125	-651.72802734375	-94.29685974121094	944.8824462890625	-543.1061401367188	-127.4915466308594	1045.133911132812	-601.7218017578125	-331.7096557617188	1199.476806640625	-467.8564453125	-120.5071792602539	1150.826293945312	-601.0475463867188	-155.4149169921875	1398.439331054688	-564.8438720703125	-285.150390625	1318.914794921875	-490.4454956054688	-153.4400329589844	1256.939086914062	-652.6553955078125	-87.14731597900391	1360.586669921875	-489.8971557617188	-130.7932281494141	1372.851318359375	-399.9026794433594	-55.55686950683594	1262.72607421875	-370.6583862304688	-19.54559707641602	1068.270141601562	-369.5791931152344	-25.84012031555176	1054.342651367188	-454.19873046875	-79.95777893066406	840.3179931640625	-347.4986572265625	1.348853230476379	838.0550537109375	-350.1943054199219	-6.726829051971436	963.4205932617188	-362.6408996582031	-46.64563751220703	662.680419921875	-357.5594177246094	-1.736233472824097	751.5748901367188	-351.6693725585938	-59.71519088745117	743.2073974609375	-331.40087890625	-283.5489501953125	1386.253173828125	-668.3195190429688	-304.6629638671875	1326.899780273438	-729.4363403320312	-369.0398864746094	1075.290283203125	-786.6090698242188	-309.6180725097656	1050.042358398438	-714.7260131835938	-532.8790283203125	911.5800170898438	-688.6428833007812	-531.8916015625	895.7495727539062	-761.0839233398438	-417.802734375	1020.972045898438	-786.6008911132812	-606.1904907226562	754.4009399414062	-687.583984375	-599.600341796875	827.3004760742188	-693.50390625	-573.052490234375	817.5009155273438	-756.6458129882812	-268.236572265625	1591.298583984375	-592.51171875	-261.2959594726562	1571.201538085938	-393.510986328125	-342.5975036621094	1585.115478515625	-482.35498046875	-147.1665802001953	1573.332275390625	-488.25048828125	-113.32421875	937.500732421875	-403.8522338867188	-295.9740295410156	964.7128295898438	-709.0354614257812	-384.5564575195312	968.5677490234375	-594.7688598632812	-233.2036590576172	948.56640625	-381.8219604492188	-355.3305358886719	497.5210266113281	-325.9329833984375	-285.4243774414062	618.0321655273438	-339.1033020019531	-281.1647644042969	70.19174957275391	-466.5698852539062	-309.6137084960938	270.9651184082031	-387.256591796875	-477.6969604492188	61.31313323974609	-381.6396179199219	-439.4935913085938	62.78942108154297	-453.3065185546875	-367.2106323242188	54.82638931274414	-376.190673828125	-288.5872802734375	76.16193389892578	-534.0346069335938	-314.5635986328125	473.7961120605469	-699.1032104492188	-365.9496154785156	736.3020629882812	-680.5142211914062	-229.8958129882812	51.00017166137695	-719.8829956054688	-309.5445251464844	345.4335327148438	-691.3312377929688	-364.1569519042969	40.29404830932617	-586.8329467773438	-284.7236633300781	44.55747604370117	-591.2772216796875	-308.0224609375	40.31396102905273	-690.8784790039062	-141.3491821289062	39.47053527832031	-703.210693359375	
455	4.54	-174.1758422851562	971.1884765625	-648.2589111328125	-102.3093338012695	944.1206665039062	-540.0973510742188	-136.0362854003906	1043.958129882812	-598.6936645507812	-339.067138671875	1198.12939453125	-463.426513671875	-128.5854949951172	1149.776245117188	-598.3221435546875	-163.7288665771484	1397.219848632812	-561.7561645507812	-292.8305969238281	1317.60205078125	-486.2826843261719	-162.2563171386719	1255.914794921875	-649.6838989257812	-94.81615447998047	1359.332397460938	-487.5028381347656	-137.6209411621094	1371.509155273438	-397.1026611328125	-61.7315559387207	1261.604614257812	-369.2075500488281	-24.57566070556641	1067.439697265625	-369.3398132324219	-32.54405212402344	1053.6162109375	-453.8627319335938	-83.14445495605469	839.0543212890625	-346.5581665039062	-1.959591031074524	837.299072265625	-350.9767456054688	-11.0491828918457	962.6719970703125	-362.9011535644531	-49.47095108032227	661.505859375	-357.344482421875	-4.596845626831055	750.8427734375	-352.5680236816406	-62.12773895263672	742.0376586914062	-331.0614624023438	-292.5910949707031	1385.056030273438	-664.1862182617188	-314.262939453125	1325.6005859375	-725.1065063476562	-380.4149780273438	1074.155883789062	-781.4125366210938	-320.8220520019531	1048.760864257812	-709.6868896484375	-546.6788940429688	914.8204345703125	-681.0947875976562	-546.2532348632812	897.8908081054688	-753.3008422851562	-429.8896179199219	1020.620300292969	-780.7515258789062	-623.6891479492188	759.4550170898438	-677.542724609375	-615.286865234375	832.0897827148438	-684.5556030273438	-589.1229248046875	820.6386108398438	-747.6160278320312	-277.0676879882812	1590.257446289062	-587.8606567382812	-268.3928527832031	1569.439331054688	-389.0273132324219	-350.5018615722656	1583.490234375	-477.06201171875	-155.1100158691406	1572.199829101562	-484.8048706054688	-120.5050354003906	936.2887573242188	-400.7083435058594	-304.825439453125	963.9652099609375	-704.9234619140625	-392.7469787597656	967.1709594726562	-590.0704956054688	-240.2597808837891	947.3176879882812	-377.9292602539062	-361.63720703125	495.7799377441406	-321.6264343261719	-290.9403991699219	616.6177368164062	-335.3479919433594	-310.9455261230469	62.54469680786133	-453.4552917480469	-327.3805236816406	266.1737365722656	-378.7615051269531	-505.6170349121094	64.671142578125	-364.0458374023438	-469.2327575683594	63.01481628417969	-436.5130310058594	-395.3833618164062	53.30165100097656	-360.8302307128906	-319.5187377929688	67.36574554443359	-520.8347778320312	-317.4838256835938	473.3507995605469	-697.87890625	-371.8285522460938	735.0969848632812	-676.6041259765625	-229.9326324462891	51.1788444519043	-719.6909790039062	-311.3042907714844	345.0079956054688	-690.67333984375	-364.4371032714844	40.16718292236328	-586.7733154296875	-284.8864135742188	44.44019317626953	-591.2056274414062	-308.0954284667969	40.35078430175781	-690.800537109375	-141.2687530517578	39.87521743774414	-702.8864135742188	
